<?xml version="1.0" encoding="UTF-8"?>
<svg width="1200pt" height="1200pt" version="1.1" viewBox="0 0 1200 1200" xmlns="http://www.w3.org/2000/svg">
 <path fill="blue" d="m858 907.2h-43.199c-19.199 0-36-13.199-40.801-32.398l-93.602-375.6c-2.3984-8.3984 1.1992-18 8.3984-22.801 43.199-28.801 72-78 72-133.2 0-90-74.398-162-165.6-159.6-82.797 2.4023-151.2 68.402-154.8 151.2-2.3984 58.801 26.398 111.6 72 141.6 7.1992 4.8008 10.801 14.398 8.3984 22.801l-93.602 375.6c-4.8008 19.199-21.602 32.398-40.801 32.398h-43.199c-24 0-42 19.199-42 42v67.199c0 24 19.199 43.199 44.398 43.199h512.4c24 0 44.398-19.199 44.398-43.199v-67.199c-2.3906-22.805-21.59-42.004-44.391-42.004zm-321.6-592.8c-8.3984 26.398-30 43.199-46.801 37.199-16.801-6-22.801-31.199-14.398-57.602 8.3984-26.398 28.801-43.199 45.602-37.199 18 4.8047 25.199 31.203 15.598 57.602z"/>
</svg>
